<svg xmlns="http://www.w3.org/2000/svg" data-name="Layer 1" width="878.63037" height="483" viewBox="0 0 878.63037 483" xmlns:xlink="http://www.w3.org/1999/xlink">
  <path d="M294.7164,621.20348c-19.51084,14.54436-25.04043,40.13465-25.04043,40.13465s26.10369,2.00928,45.61453-12.53511,25.04043-40.13465,25.04043-40.13465S314.22725,606.65916,294.7164,621.20348Z" transform="translate(-160.68481 -208.5)" fill="#f2f2f2"/>
  <path d="M302.85958,628.3566c-9.37708,22.45621-32.86178,34.02822-32.86178,34.02822s-8.28141-24.83665,1.09568-47.29286,32.86172-34.02822,32.86172-34.02822S312.23666,605.90039,302.85958,628.3566Z" transform="translate(-160.68481 -208.5)" fill="#10b981"/>
  <path d="M864.18723,563.11405h-738.294a1.19069,1.19069,0,0,1,0-2.38137h738.294a1.19069,1.19069,0,0,1,0,2.38137Z" transform="translate(-160.68481 -208.5)" fill="#cacaca"/>
  <polygon points="660.113 445.375 648.707 445.375 643.156 401.346 660.115 401.347 660.113 445.375" fill="#ffb6b6"/>
  <path d="M640.52567,442.09206H661.505a0,0,0,0,1,0,0v14.88687a0,0,0,0,1,0,0H625.63881a0,0,0,0,1,0,0v0A14.88686,14.88686,0,0,1,640.52567,442.09206Z" fill="#2f2e41"/>
  <polygon points="521.957 435.693 511.524 431.026 521.875 388.532 537.252 395.967 521.957 435.693" fill="#ffb6b6"/>
  <path d="M667.79588,631.93334h23.64387a0,0,0,0,1,0,0v14.88687a0,0,0,0,1,0,0H652.90905a0,0,0,0,1,0,0v0A14.88682,14.88682,0,0,1,667.79588,631.93334Z" transform="translate(-302.59795 923.26732) rotate(-69.73678)" fill="#2f2e41"/>
  <circle cx="594.60309" cy="86.35671" r="24.56103" fill="#ffb6b6"/>
  <path d="M770.24044,416.57842l-26.54182-3.80600s-17.52428,19.9361-23.14236,51.02936-7.6121,84.01423-7.6121,84.01423l-29.59072,89.96761,22.78825,12.15568,35.20892-86.16159,10.63026-90.72254Z" transform="translate(-160.68481 -208.5)" fill="#2f2e41"/>
  <path d="M755.0826,410.6705l0,0a12.08366,12.08366,0,0,1,16.29393,10.15124l10.99577,121.86923-26.21658,2.5371L739.99856,425.94178A12.08366,12.08366,0,0,1,755.0826,410.6705Z" transform="translate(-160.68481 -208.5)" fill="#10b981"/>
  <path d="M686.1684,404.92253l0,0a12.08365,12.08365,0,0,1,16.10609-10.41438l38.07671,114.9394L720.88759,519.9231,670.11456,419.14558A12.08366,12.08366,0,0,1,686.1684,404.92253Z" transform="translate(-160.68481 -208.5)" fill="#10b981"/>
  <path d="M686.1684,404.92253l0,0a12.08365,12.08365,0,0,1,16.10609-10.41438l38.07671,114.9394L720.88759,519.9231,670.11456,419.14558A12.08366,12.08366,0,0,1,686.1684,404.92253Z" transform="translate(-160.68481 -208.5)" opacity="0.2"/>
  <path d="M751.32819,333.43243l-22.03815-9.38511-29.48633,5.45893-6.98726,25.26621,8.20559,7.29949,5.05315-11.58292,4.69128,13.32258,39.13766,3.68094Z" transform="translate(-160.68481 -208.5)" fill="#2f2e41"/>
  <path d="M708.61089,546.40481,734.5,419,767.16217,545.17561l-25.6095,25.6095Z" transform="translate(-160.68481 -208.5)" fill="#2f2e41"/>
  <path d="M485.25648,352.72785a10.05578,10.05578,0,0,1-9.36779-14.21238l-30.95737-21.13114,17.30413-10.69889,26.19381,22.91772a10.11027,10.11027,0,0,1-3.17278,23.12469Z" transform="translate(-160.68481 -208.5)" fill="#ffb6b6"/>
  <path d="M438.46535,320.48186l-10.30361-3.71344-23.29589-31.81412a7.85768,7.85768,0,0,1,3.11209-11.03977l21.30151-11.95077a7.85771,7.85771,0,0,1,11.2298,3.5705l13.96432,35.72869,1.14018,11.62882Z" transform="translate(-160.68481 -208.5)" fill="#10b981"/>
  <path d="M414.91613,401.658a10.05578,10.05578,0,0,1-8.5705-15.22659l-28.841-23.72248,18.0704-9.06232,24.52852,25.04138a10.11028,10.11028,0,0,1-5.17842,22.97Z" transform="translate(-160.68481 -208.5)" fill="#ffb6b6"/>
  <path d="M366.80517,368.3757l-10.4349-2.77664-27.29357-28.527a7.85768,7.85768,0,0,1,1.57778-11.42789l19.61588-14.54908a7.85771,7.85771,0,0,1,11.36793,2.463l17.45384,34.00137,2.88489,11.31357Z" transform="translate(-160.68481 -208.5)" fill="#10b981"/>
  <polygon points="203.946 190.214 171.988 236.56 198.574 299.277 223.906 299.277 227.615 211.533 203.946 190.214" fill="#2f2e41"/>
  <circle cx="219.97508" cy="151.45819" r="22.20855" fill="#ffb6b6"/>
  <path d="M344.4857,378.6052l10.42944-1.23936s4.17857-10.16239,12.75306-9.25517c0,0,11.43575-13.48315,21.53663-2.06019l4.43915,4.74034,5.75113,1.02981-2.06019,31.73131-5.75113,32.97067-38.9147-3.09029-15.45144-15.45144Z" transform="translate(-160.68481 -208.5)" fill="#10b981"/>
  <path d="M344.48241,378.61359l10.43273-1.24774s4.17857-10.16239,12.75306-9.25517c0,0,11.43575-13.48315,21.53663-2.06019l4.43915,4.74034,5.75113,1.02981-2.06019,31.73131-5.75113,32.97067-38.9147-3.09029-15.45144-15.45144Z" transform="translate(-160.68481 -208.5)" opacity="0.2"/>
  <path d="M370.25972,354.16107l-12.75306,3.09029-9.66277,15.45143s-8.43142,5.14632-8.43142,12.7805v20.18229l-6.17633,29.88038,5.14632,61.99217,58.90188-4.11713,54.78475-10.29253-1.03019-35.02825-20.18229-22.24248-5.14632-54.78475L409.17442,351.0708l-6.17633-1.03019Z" transform="translate(-160.68481 -208.5)" fill="#2f2e41"/>
  <path d="M370.25972,354.16107l-12.75306,3.09029-9.66277,15.45143s-8.43142,5.14632-8.43142,12.7805v20.18229l-6.17633,29.88038,5.14632,61.99217,58.90188-4.11713,54.78475-10.29253-1.03019-35.02825-20.18229-22.24248-5.14632-54.78475L409.17442,351.0708l-6.17633-1.03019Z" transform="translate(-160.68481 -208.5)" opacity="0.2"/>
  <path d="M361.82831,368.58051l-9.66277,12.36124s-14.42125,10.29253-14.42125,14.40971v18.12211l-5.14633,28.85018,6.17633,63.02237,40.36342-1.03019,44.48055-7.20142,7.2139-35.02825-14.42125-18.12211-6.17633-50.66762-4.11713-30.90057-16.48163,5.14632Z" transform="translate(-160.68481 -208.5)" fill="#2f2e41"/>
  <path d="M327.8714,548.55608s-9.66277,23.27267-2.05923,26.36287,9.66277,2.05923,9.66277,2.05923l6.17633-5.14632,1.02923-7.2139-5.14632-1.03019-1.02923-12.36124Z" transform="translate(-160.68481 -208.5)" fill="#2f2e41"/>
  <path d="M452.58717,543.40976s9.66277,23.27267,2.05923,26.36287-9.66277,2.05923-9.66277,2.05923l-6.17633-5.14632-1.02923-7.2139,5.14632-1.03019,1.02923-12.36124Z" transform="translate(-160.68481 -208.5)" fill="#2f2e41"/>
  <path d="M380.9525,322.2276l-4.63671,1.54547-2.05923,2.05923-2.05923,22.24248-10.29253,14.42125s-6.17632-3.09029-6.17632-6.18058-12.36125-6.17632-12.36125-6.17632l6.17632-22.24248,5.14633-17.09192,7.2139-2.05923,7.2139,1.02923,8.24058,5.14632Z" transform="translate(-160.68481 -208.5)" fill="#2f2e41"/>
  <path d="M401.13479,323.25683l2.05923,1.02923,3.09029,0,3.09029,22.24248,8.24058,15.45144s6.17632-3.09029,6.17632-6.18058,12.36125-6.17632,12.36125-6.17632l-5.14632-22.24248-6.17633-17.09192-6.17632-2.05923-8.24058,1.02923-8.24058,5.14632Z" transform="translate(-160.68481 -208.5)" fill="#2f2e41"/>
  <path d="M369.2295,338.70827l12.36125,20.6019,12.36125-1.02922,9.27084,1.02922,6.17632,5.14633,10.29253-5.14633s-6.17632-22.24248-12.36124-28.41881-30.90057-7.2139-30.90057-7.2139Z" transform="translate(-160.68481 -208.5)" fill="#2f2e41"/>
  <path d="M387.12142,294.84267c0,9.30389-5.35688,16.8423-11.96045,16.8423-6.60624,0-11.96045-7.53841-11.96045-16.8423,0-9.30389,5.35421-10.46568,11.96045-10.46568C381.76454,284.377,387.12142,285.53878,387.12142,294.84267Z" transform="translate(-160.68481 -208.5)" fill="#2f2e41"/>
  <path d="M371.80432,302.83525c0,6.60642-3.80127,11.96046-8.49676,11.96046s-8.49676-5.354-8.49676-11.96046,3.80127-11.96045,8.49676-11.96045S371.80432,296.22883,371.80432,302.83525Z" transform="translate(-160.68481 -208.5)" fill="#2f2e41"/>
  <circle cx="212.34834" cy="85.97024" r="16.85431" fill="#2f2e41"/>
  <circle cx="212.34834" cy="85.97024" r="16.85431" opacity="0.2"/>
  <circle cx="644.5442" cy="236.75879" r="47" fill="#10b981"/>
  <polygon points="657.544 234.759 659.544 234.759 659.544 232.759 661.544 232.759 661.544 234.759 663.544 234.759 663.544 236.759 661.544 236.759 661.544 238.759 659.544 238.759 659.544 236.759 657.544 236.759 657.544 234.759" fill="#fff"/>
  <polygon points="629.544 238.759 631.544 238.759 631.544 236.759 633.544 236.759 633.544 238.759 635.544 238.759 635.544 240.759 633.544 240.759 633.544 242.759 631.544 242.759 631.544 240.759 629.544 240.759 629.544 238.759" fill="#fff"/>
  <polygon points="643.544 246.759 645.544 246.759 645.544 244.759 647.544 244.759 647.544 246.759 649.544 246.759 649.544 248.759 647.544 248.759 647.544 250.759 645.544 250.759 645.544 248.759 643.544 248.759 643.544 246.759" fill="#fff"/>
</svg> 