<?xml version="1.0" standalone="no"?>
<!DOCTYPE svg PUBLIC "-//W3C//DTD SVG 20010904//EN"
 "http://www.w3.org/TR/2001/REC-SVG-20010904/DTD/svg10.dtd">
<svg version="1.0" xmlns="http://www.w3.org/2000/svg"
 width="750.000000pt" height="750.000000pt" viewBox="0 0 750.000000 750.000000"
 preserveAspectRatio="xMidYMid meet">
<metadata>
Created by potrace 1.14, written by Peter Selinger 2001-2017
</metadata>
<g transform="translate(0.000000,750.000000) scale(0.100000,-0.100000)"
fill="#000000" stroke="none">
<path d="M1623 7488 c20 -47 34 -68 45 -68 6 0 12 -5 12 -11 0 -24 137 -116
257 -174 35 -17 63 -36 63 -42 0 -7 9 -13 19 -13 11 0 22 -4 25 -9 3 -4 38
-18 78 -31 40 -12 86 -26 102 -31 16 -5 80 -9 142 -9 90 0 114 3 114 14 0 8
20 19 48 26 26 7 54 19 63 27 8 7 23 13 32 13 9 0 17 7 17 15 0 18 49 64 68
65 6 0 12 4 12 8 0 11 -186 32 -283 32 -94 0 -213 31 -273 71 -41 28 -114 105
-114 120 0 5 -97 9 -216 9 -169 0 -215 -3 -211 -12z"/>
<path d="M7470 5463 c-34 -5 -158 -42 -195 -58 -16 -7 -58 -21 -92 -30 -35
-10 -63 -22 -63 -26 0 -5 -16 -9 -35 -9 -20 0 -49 -7 -64 -15 -35 -17 -163
-56 -211 -62 -19 -3 -39 -9 -45 -13 -18 -14 -117 -31 -210 -36 -72 -4 -114 -1
-212 19 -127 26 -142 26 -233 -7 -53 -20 -113 -84 -151 -164 -22 -45 -25 -59
-17 -86 16 -50 71 -66 253 -76 164 -9 233 -18 241 -31 3 -5 15 -9 28 -9 13 0
38 -7 55 -16 27 -13 56 -16 154 -12 81 3 122 8 125 16 2 7 15 12 30 12 14 0
51 5 81 11 46 10 67 9 121 -4 80 -20 211 -65 228 -79 13 -12 193 -5 225 7 16
7 17 32 17 341 0 184 -1 333 -2 333 -2 -1 -14 -4 -28 -6z"/>
<path d="M971 4819 c-53 -7 -67 -12 -187 -63 -34 -14 -68 -26 -77 -26 -8 0
-20 -7 -27 -15 -7 -8 -23 -15 -36 -15 -12 0 -25 -4 -29 -9 -3 -5 -20 -13 -38
-16 -17 -4 -43 -13 -57 -20 -14 -8 -46 -19 -72 -25 -27 -7 -48 -16 -48 -19 0
-4 -24 -15 -52 -25 -29 -11 -60 -25 -69 -32 -8 -8 -21 -14 -28 -14 -7 0 -25
-9 -40 -19 -15 -11 -39 -23 -54 -26 -14 -4 -31 -13 -38 -21 -6 -8 -26 -14 -43
-14 -17 0 -41 -3 -53 -6 l-23 -6 0 -1284 c0 -796 4 -1284 9 -1284 6 0 13 5 16
10 3 6 17 10 31 10 13 0 24 5 24 10 0 6 5 10 11 10 20 0 149 65 149 75 0 6 14
16 30 23 17 8 49 31 73 53 23 21 45 39 50 39 4 0 7 7 7 15 0 8 4 15 9 15 16 0
21 111 6 140 -8 16 -18 86 -24 166 -12 164 1 335 30 406 10 26 19 58 19 71 0
13 8 35 18 48 10 13 38 65 62 114 24 50 47 93 52 96 5 3 18 30 29 60 12 30 24
56 28 59 15 10 58 85 65 114 4 16 23 44 42 61 19 17 34 36 34 42 0 6 12 19 28
29 37 24 48 36 56 59 3 11 22 38 41 59 19 22 42 60 51 85 10 25 23 53 29 61 7
8 20 35 29 59 15 39 107 141 128 141 4 0 22 15 40 33 36 36 102 81 134 91 38
12 62 44 85 118 26 84 31 209 10 273 -19 60 -44 118 -61 138 -73 91 -152 142
-234 153 -23 3 -50 7 -61 8 -11 2 -44 0 -74 -5z"/>
<path d="M2061 4494 c-38 -21 -165 -144 -253 -244 -16 -18 -36 -30 -50 -30
-43 0 -75 -89 -56 -153 9 -29 9 -46 -1 -72 -11 -31 -9 -39 11 -75 23 -40 51
-51 65 -26 4 8 24 32 43 53 35 38 57 65 138 174 67 90 122 211 122 269 0 38 5
54 20 67 19 17 29 64 13 62 -5 0 -28 -11 -52 -25z"/>
<path d="M3078 4512 c-22 -4 -22 -11 -1 -41 15 -23 15 -25 -2 -38 -11 -7 -27
-10 -37 -7 -10 3 -32 3 -48 -1 l-30 -6 7 -60 6 -59 -27 0 c-34 0 -67 37 -60
65 4 16 3 17 -5 5 -7 -10 -37 -17 -98 -21 -83 -6 -118 -17 -151 -47 -12 -11
-12 -16 2 -37 9 -14 25 -25 36 -25 11 0 20 -5 20 -12 0 -9 3 -9 12 0 12 12 95
16 122 6 22 -8 20 -31 -4 -51 -11 -10 -20 -25 -20 -35 0 -11 -7 -18 -17 -18
-13 0 -15 2 -5 8 10 7 8 12 -7 26 -19 17 -45 16 -103 -6 -19 -7 -37 -7 -58 0
-38 14 -41 -4 -6 -37 29 -27 24 -58 -10 -72 -13 -4 -24 -13 -24 -19 0 -5 -9
-10 -19 -10 -11 0 -23 -4 -26 -10 -3 -5 -15 -10 -26 -10 -10 0 -19 5 -19 10 0
6 -10 10 -21 10 -20 0 -21 -1 -5 -25 18 -27 14 -45 -9 -45 -8 0 -19 -8 -24
-18 -5 -9 -39 -46 -75 -82 -82 -80 -130 -168 -124 -228 3 -35 0 -42 -16 -44
-31 -5 -41 -31 -25 -66 17 -39 21 -41 92 -32 62 7 78 -1 53 -26 -10 -10 -29
-14 -53 -12 -30 2 -42 -2 -57 -20 -13 -16 -21 -20 -26 -12 -4 6 -22 12 -41 13
-42 2 -53 -27 -16 -44 14 -6 27 -19 30 -28 3 -14 -2 -16 -27 -13 -17 3 -37 13
-44 23 -18 26 -36 25 -22 0 13 -26 13 -78 -1 -87 -8 -4 -7 -9 2 -16 11 -7 11
-11 2 -15 -7 -2 -13 -11 -13 -18 0 -8 -19 -23 -42 -33 l-43 -19 30 -12 c16 -7
40 -9 52 -6 15 3 25 0 29 -9 3 -8 25 -19 50 -25 42 -11 44 -13 44 -47 0 -26 8
-43 29 -65 25 -24 37 -29 80 -29 40 0 53 -4 63 -20 7 -11 20 -20 30 -20 9 0
18 -6 21 -12 3 -10 7 -10 19 -1 11 10 19 9 35 -2 11 -8 23 -12 26 -8 4 3 9 -1
13 -10 6 -16 -16 -47 -33 -47 -4 0 -14 -9 -21 -20 -7 -11 -19 -20 -27 -20 -18
0 -19 12 -3 28 9 9 5 12 -17 14 -17 1 -39 1 -50 0 -11 0 -42 4 -69 11 -39 9
-52 17 -59 38 -9 23 -15 26 -72 27 -46 1 -64 -2 -68 -12 -3 -8 -22 -19 -41
-26 -20 -6 -36 -18 -36 -26 0 -9 -12 -14 -36 -14 -44 0 -42 -21 5 -34 26 -8
35 -5 54 12 46 43 125 16 127 -43 0 -14 3 -16 9 -7 6 10 10 10 21 -3 10 -12
10 -15 -4 -15 -9 0 -16 -4 -16 -10 0 -15 -27 -12 -44 5 -8 8 -19 15 -25 15 -6
0 -11 5 -11 12 0 8 -6 6 -17 -4 -13 -14 -14 -20 -4 -32 14 -16 6 -56 -11 -56
-6 0 -8 -9 -5 -20 3 -11 1 -20 -4 -20 -5 0 -9 -10 -9 -21 0 -18 -2 -19 -15 -9
-12 10 -18 10 -30 0 -8 -7 -15 -19 -15 -26 0 -8 -10 -14 -25 -14 -16 0 -25 -6
-25 -15 0 -17 45 -21 55 -5 9 15 25 12 25 -5 0 -8 -11 -17 -25 -21 -19 -5 -24
-11 -20 -25 3 -11 8 -28 11 -39 3 -13 1 -20 -9 -20 -8 0 -20 -13 -26 -30 -6
-17 -16 -42 -21 -57 -19 -49 -46 -74 -72 -68 -33 8 -49 38 -42 75 5 21 14 32
31 36 29 8 45 34 32 56 -13 24 -63 9 -67 -20 -2 -14 -10 -22 -23 -22 -29 0
-59 -18 -59 -35 0 -8 -6 -15 -14 -15 -8 0 -16 -6 -19 -12 -3 -10 -10 -10 -31
1 -18 10 -23 18 -16 25 24 24 10 44 -36 51 -26 3 -53 9 -60 12 -17 6 -20 -52
-4 -62 15 -9 -65 -65 -93 -65 -32 0 -49 -18 -34 -37 18 -21 30 -32 52 -48 l20
-14 -20 -16 c-11 -8 -32 -18 -47 -21 -28 -6 -81 -54 -60 -54 7 0 12 -11 12
-24 0 -16 7 -27 20 -31 11 -3 20 -11 20 -16 0 -5 9 -9 20 -9 11 0 20 -5 20
-11 0 -8 17 -10 50 -7 36 4 53 1 62 -9 18 -22 -31 -63 -77 -63 l-35 0 0 -49
c0 -44 3 -50 30 -61 36 -15 130 3 130 26 0 8 9 14 20 14 11 0 20 6 20 13 0 8
3 8 8 1 9 -13 35 -23 78 -30 25 -4 33 -1 36 12 3 17 4 17 21 0 25 -26 22 -34
-28 -57 -25 -12 -42 -25 -40 -30 3 -5 25 -17 48 -27 56 -24 147 -19 154 9 3
10 15 21 27 24 219 58 269 91 229 152 -16 23 -16 26 0 35 24 13 23 58 -1 58
-11 0 -27 9 -36 19 -14 15 -15 24 -6 40 10 19 8 21 -20 21 -23 0 -30 4 -30 19
0 11 4 21 8 23 4 2 18 20 31 41 12 20 27 37 32 37 15 0 10 32 -8 52 -15 17
-15 19 3 32 11 8 25 11 34 6 8 -4 31 -10 51 -14 21 -4 42 -13 49 -21 7 -8 19
-15 26 -15 8 0 14 -4 14 -10 0 -20 40 -9 56 15 19 29 12 75 -13 75 -26 0 -42
31 -43 81 0 25 -5 50 -12 57 -6 6 -8 15 -4 19 4 4 11 1 16 -6 5 -10 18 -12 40
-8 23 5 36 2 52 -12 24 -23 40 -19 58 13 11 21 9 27 -9 45 -12 12 -21 28 -21
36 0 8 -9 15 -20 15 -15 0 -20 7 -20 26 0 25 1 26 23 12 12 -8 31 -17 43 -20
26 -7 57 9 48 24 -4 6 -1 16 7 22 23 18 42 63 36 85 -7 28 -1 26 32 -9 25 -28
31 -30 67 -22 29 6 38 13 36 25 -2 10 4 17 13 17 8 0 15 -9 15 -20 0 -15 7
-20 26 -20 20 0 25 4 20 16 -3 8 4 30 17 48 18 27 26 31 47 25 41 -11 47 -10
53 11 4 15 14 20 40 20 20 0 37 -6 40 -12 4 -10 7 -10 18 0 7 6 22 12 34 13
15 0 11 5 -15 16 -19 8 -38 19 -41 25 -3 5 -12 8 -20 7 -8 -2 -24 3 -37 10
-19 10 -21 15 -11 27 14 17 33 18 58 2 14 -8 29 -9 53 -2 36 10 129 7 111 -4
-8 -5 -8 -13 1 -29 l12 -23 35 19 c26 14 40 16 53 9 25 -14 38 8 30 47 -14 61
-15 60 67 58 69 -2 81 1 123 27 39 25 54 29 89 24 23 -3 49 -8 57 -11 41 -15
60 -11 80 17 11 15 20 37 20 48 0 12 5 24 11 27 6 4 8 13 5 20 -3 8 2 19 10
26 11 9 18 8 33 -5 12 -11 20 -13 23 -6 2 6 20 13 41 17 28 4 37 2 37 -9 0
-24 55 -48 108 -48 29 0 52 -5 54 -12 3 -7 31 -11 81 -11 53 1 80 -3 88 -13
23 -28 108 -14 152 26 37 34 47 40 67 40 11 0 30 -10 41 -21 22 -22 24 -22
128 -3 28 6 37 2 57 -22 13 -16 23 -37 24 -46 0 -23 48 -25 56 -3 4 8 14 15
25 15 38 0 52 82 17 101 -22 12 -24 47 -3 55 10 4 15 20 15 45 0 35 -2 39 -26
39 -15 0 -33 8 -40 18 -11 14 -9 21 14 45 22 23 24 30 12 37 -11 7 -10 12 8
27 46 39 70 152 40 190 -10 13 10 83 24 83 4 0 17 9 28 20 12 12 25 18 30 15
5 -3 29 4 52 17 36 19 61 23 155 25 127 3 153 15 153 74 0 19 8 37 20 47 19
16 27 42 20 67 -1 6 -2 20 -1 33 1 17 7 22 29 22 22 0 31 9 49 44 l22 44 -35
21 c-34 20 -96 27 -140 15 -16 -4 -19 -12 -16 -35 3 -21 0 -29 -11 -29 -8 0
-17 -4 -19 -8 -7 -17 -114 -39 -137 -28 -21 9 -23 15 -19 58 l5 48 -43 0 c-49
0 -48 4 -44 -97 2 -60 1 -61 -27 -66 -15 -3 -48 -6 -73 -7 -25 -1 -58 -3 -75
-3 -28 -2 -30 1 -33 34 -3 30 2 41 24 58 15 12 25 24 21 27 -7 7 -108 16 -173
14 -45 -1 -56 3 -83 30 -33 33 -38 49 -20 67 16 16 -11 53 -38 53 -12 0 -35
-13 -51 -30 -17 -16 -35 -30 -40 -30 -5 0 -23 14 -40 30 -18 17 -42 30 -55 30
-25 0 -57 28 -57 48 0 7 -4 11 -8 9 -4 -1 -22 12 -39 30 -33 33 -27 32 -212
52 -84 9 -97 13 -116 37 -18 23 -26 25 -56 19 -18 -4 -42 -16 -52 -26 -19 -20
-73 -24 -132 -9 -25 6 -27 8 -12 14 35 16 16 26 -48 26 -58 0 -85 -12 -53 -22
9 -3 8 -12 -5 -31 -21 -32 -31 -33 -64 -7 -31 24 -83 27 -83 5 0 -21 -17 -19
-38 6 -31 37 -121 71 -164 61z m1465 -546 c9 -7 17 -19 17 -26 0 -18 -31 -39
-57 -40 -21 0 -53 24 -53 40 0 16 32 40 53 40 12 0 30 -7 40 -14z m-1553 -620
c0 -2 -7 -7 -16 -10 -8 -3 -12 -2 -9 4 6 10 25 14 25 6z m-775 -66 c0 -9 -11
-16 -27 -18 -23 -3 -28 1 -28 18 0 17 5 21 28 18 16 -2 27 -9 27 -18z m474
-446 c37 -8 41 -29 7 -38 -13 -3 -31 -9 -40 -12 -13 -5 -16 1 -16 25 0 33 2
34 49 25z m-389 -149 c-7 -8 -16 -15 -20 -15 -4 0 -10 7 -14 15 -4 11 2 15 21
15 21 0 24 -2 13 -15z m-216 -157 c5 -10 7 -10 12 0 3 6 12 12 20 12 11 0 9
-7 -7 -30 -20 -27 -23 -28 -35 -12 -16 20 -18 42 -5 42 5 0 12 -6 15 -12z m-4
-108 c0 -5 -18 -10 -40 -10 -22 0 -40 5 -40 10 0 6 18 10 40 10 22 0 40 -4 40
-10z m30 -110 c7 -14 7 -20 0 -20 -5 0 -10 -6 -10 -14 0 -8 -4 -17 -9 -21 -6
-3 -10 12 -9 35 0 44 11 51 28 20z m-237 -344 c27 -21 21 -43 -13 -48 -35 -5
-50 7 -50 39 0 17 6 23 23 23 12 0 30 -7 40 -14z m227 -6 c23 -38 -36 -70 -73
-39 l-22 19 22 18 c24 21 61 22 73 2z m-130 -50 c0 -5 -4 -10 -10 -10 -5 0
-10 5 -10 10 0 6 5 10 10 10 6 0 10 -4 10 -10z"/>
<path d="M2220 4035 c-17 -21 9 -29 58 -20 l37 8 -35 12 c-46 17 -46 17 -60 0z"/>
<path d="M5771 3639 c-56 -55 -62 -73 -31 -89 28 -15 89 4 134 42 55 45 46 74
-25 92 -23 5 -35 -2 -78 -45z"/>
<path d="M7280 3644 c-59 -16 -71 -18 -165 -29 -93 -11 -175 -36 -201 -62 -13
-12 -30 -23 -39 -23 -43 0 -74 -164 -45 -235 16 -38 29 -126 18 -119 -28 18
-13 -69 19 -107 7 -8 13 -23 13 -32 0 -9 4 -17 9 -17 5 0 15 -17 22 -37 6 -21
15 -40 19 -43 3 -3 17 -31 29 -62 13 -32 27 -58 32 -58 5 0 9 -9 9 -19 0 -19
29 -54 91 -106 51 -43 109 -55 269 -55 l140 0 0 510 0 510 -82 -1 c-46 0 -108
-7 -138 -15z"/>
<path d="M1830 3059 c0 -5 5 -7 10 -4 6 3 10 8 10 11 0 2 -4 4 -10 4 -5 0 -10
-5 -10 -11z"/>
<path d="M2076 2976 c3 -8 12 -12 20 -9 21 8 17 23 -6 23 -13 0 -18 -5 -14
-14z"/>
<path d="M1478 2887 c-37 -21 -48 -37 -28 -37 6 0 18 9 27 20 10 11 23 20 30
20 7 0 13 5 13 10 0 13 2 13 -42 -13z"/>
<path d="M1900 2851 c0 -6 5 -13 10 -16 6 -3 10 1 10 9 0 9 -4 16 -10 16 -5 0
-10 -4 -10 -9z"/>
<path d="M2960 2763 c0 -13 5 -23 10 -23 13 0 13 11 0 30 -8 12 -10 11 -10 -7z"/>
<path d="M3120 2736 c0 -16 5 -26 15 -26 8 0 15 -7 15 -15 0 -19 17 -19 36 -1
18 19 18 36 -1 36 -9 0 -27 7 -40 16 -24 16 -25 16 -25 -10z"/>
<path d="M1459 2683 c-8 -9 -27 -22 -44 -30 -69 -31 -98 -56 -83 -71 8 -8 18
-6 38 8 14 10 39 22 55 26 33 8 64 40 65 67 0 22 -13 22 -31 0z"/>
<path d="M1848 2543 c7 -3 16 -2 19 1 4 3 -2 6 -13 5 -11 0 -14 -3 -6 -6z"/>
<path d="M1620 2503 c0 -5 7 -18 15 -29 15 -18 15 -18 13 5 -3 23 -28 44 -28
24z"/>
<path d="M1360 2431 c0 -6 -18 -11 -40 -11 -22 0 -40 -4 -40 -10 0 -15 70 -12
86 4 9 9 10 17 4 21 -5 3 -10 1 -10 -4z"/>
<path d="M1187 2349 c-49 -40 -63 -75 -42 -99 18 -20 57 -16 78 9 15 16 67
108 67 116 0 3 -15 5 -33 5 -22 0 -45 -10 -70 -31z"/>
<path d="M6959 2260 c-58 -3 -94 -11 -112 -23 -20 -13 -27 -14 -28 -5 0 7 -7
0 -14 -17 -8 -16 -14 -23 -15 -15 0 12 -3 11 -11 -3 -6 -9 -14 -15 -19 -12 -5
3 -11 1 -15 -4 -3 -6 -13 -7 -21 -4 -9 3 -20 0 -25 -8 -6 -10 -9 -10 -9 -1 0
8 -16 12 -45 12 -33 0 -45 4 -45 15 0 26 -37 17 -44 -10 -4 -14 -12 -24 -19
-22 -7 1 -13 -11 -15 -28 -2 -28 -1 -29 12 -12 13 16 14 14 17 -27 4 -41 1
-47 -30 -72 -27 -21 -35 -24 -42 -13 -7 12 -11 11 -25 -3 -19 -19 -11 -39 14
-32 9 3 4 -5 -13 -18 -16 -12 -36 -23 -45 -23 -9 0 -15 -9 -15 -22 0 -11 -4
-25 -9 -30 -5 -5 -6 -2 -1 6 5 10 4 12 -4 7 -6 -4 -9 -12 -5 -17 3 -5 0 -16
-6 -24 -14 -17 5 -89 21 -80 5 4 9 -3 9 -14 0 -12 7 -21 15 -21 22 0 19 -7
-17 -41 -18 -18 -25 -26 -15 -19 13 10 17 10 17 0 0 -6 -9 -14 -20 -17 -11 -3
-17 -9 -14 -14 2 -5 -2 -20 -11 -33 -9 -14 -14 -30 -10 -37 4 -6 2 -15 -5 -19
-8 -5 -15 -19 -17 -32 -1 -13 -21 -39 -43 -59 -22 -20 -40 -44 -40 -53 0 -24
-19 -19 -32 9 -6 13 -19 27 -30 31 -10 3 -17 13 -16 22 3 14 -11 18 -79 26
-46 5 -83 13 -83 17 0 5 -9 9 -20 9 -19 0 -27 9 -35 42 -9 37 -18 58 -26 58
-5 0 -6 7 -3 15 4 9 0 15 -9 15 -27 0 -32 61 -8 106 25 47 28 86 6 78 -8 -4
-15 -1 -15 5 0 6 -6 11 -14 11 -8 0 -21 6 -28 13 -7 8 -35 16 -62 19 -32 4
-52 12 -59 23 -5 10 -18 26 -29 37 -18 18 -18 21 -4 37 18 20 5 41 -25 41 -26
0 -30 -13 -14 -41 8 -13 17 -30 21 -37 7 -14 -33 -51 -56 -52 -18 0 -42 -47
-29 -56 18 -11 9 -24 -17 -24 -22 0 -25 3 -20 23 4 16 -3 33 -24 57 -29 34
-40 80 -20 80 6 0 10 6 10 13 0 7 11 19 25 28 25 15 25 15 5 32 -19 16 -21 16
-27 1 -9 -24 -23 3 -23 46 0 44 -27 59 -96 51 l-49 -6 0 -40 c0 -47 -47 -121
-82 -131 -22 -6 -37 -21 -118 -121 -22 -28 -51 -55 -65 -61 -49 -22 -145 -52
-170 -52 -18 0 -21 -3 -12 -9 21 -13 -11 -21 -117 -30 -103 -9 -115 -16 -127
-78 -7 -35 -24 -56 -24 -29 0 9 -9 16 -20 16 -13 0 -22 9 -26 28 -8 34 -37 62
-63 62 -11 0 -36 9 -56 20 -20 11 -44 20 -55 20 -11 0 -20 6 -20 14 0 19 -22
26 -85 26 -57 0 -90 -13 -136 -54 -16 -15 -44 -29 -62 -33 -17 -3 -39 -11 -47
-17 -42 -31 -58 -35 -94 -24 -20 6 -36 18 -36 25 0 11 -8 13 -32 8 -18 -4 -36
-13 -40 -19 -6 -8 -10 -7 -17 3 -6 9 -11 10 -15 2 -10 -15 -76 -14 -76 2 0 16
-90 57 -128 57 -17 0 -32 -5 -34 -12 -3 -9 -12 -8 -38 0 -20 7 -36 8 -39 3 -3
-5 -17 -11 -31 -12 -18 -3 -26 -11 -28 -28 -3 -19 -6 -21 -13 -10 -6 10 -9 10
-9 2 0 -18 -37 -16 -44 2 -3 8 -18 15 -32 15 -15 0 -36 7 -46 17 -12 11 -34
16 -68 14 -28 -1 -50 3 -50 9 0 18 -28 11 -35 -9 -3 -11 -15 -23 -26 -26 -10
-4 -19 -13 -19 -21 0 -23 -30 -16 -52 12 -27 33 -81 31 -86 -3 -2 -13 -9 -23
-17 -23 -7 0 -15 -7 -19 -15 -7 -21 -43 -19 -55 3 -6 9 -11 11 -11 5 0 -8 -14
-13 -37 -13 -31 0 -40 -5 -50 -27 -10 -20 -10 -29 -1 -34 7 -4 -1 -9 -18 -11
-25 -2 -29 -8 -32 -35 -2 -20 -9 -33 -17 -33 -19 0 -29 18 -17 33 15 20 22 61
12 77 -5 8 -10 10 -10 4 0 -6 -16 -18 -36 -27 l-35 -17 -20 45 c-22 51 -52 60
-83 26 -21 -24 -104 -54 -120 -44 -6 4 -21 20 -34 35 -28 33 -52 36 -78 7 -15
-17 -16 -23 -6 -40 7 -10 9 -19 4 -19 -4 0 -12 -10 -17 -22 -12 -26 -69 -46
-136 -47 -48 -1 -63 9 -72 44 -2 11 -3 4 -1 -15 2 -19 8 -36 14 -38 14 -5 0
-54 -19 -69 -11 -8 -12 -12 -3 -13 6 0 12 -9 12 -20 0 -24 -1 -24 -44 -6 -20
8 -39 10 -47 5 -8 -5 -26 -9 -41 -9 -21 0 -28 -5 -28 -20 0 -11 6 -20 13 -20
8 0 7 -4 -3 -10 -12 -7 -6 -13 27 -26 24 -9 43 -23 43 -31 0 -9 14 -13 43 -14
l42 -2 -35 -6 -35 -6 22 -22 c12 -12 19 -24 16 -27 -7 -6 12 -9 37 -7 9 1 11
-1 5 -6 -5 -4 -11 -15 -13 -24 -3 -19 29 -34 103 -49 131 -28 216 -55 240 -76
13 -10 31 -24 41 -30 37 -22 36 -37 -6 -114 -43 -80 -62 -112 -70 -120 -3 -3
-22 -31 -44 -62 -21 -32 -42 -58 -45 -58 -4 0 -15 -15 -25 -32 -18 -35 -27
-50 -67 -113 -14 -22 -33 -57 -42 -77 -10 -20 -23 -43 -30 -50 -7 -7 -18 -24
-25 -38 -25 -49 -38 -69 -75 -110 -20 -24 -37 -47 -37 -51 0 -10 -37 -49 -46
-49 -4 0 -14 -9 -23 -19 -17 -19 -18 -19 -62 2 -24 12 -45 25 -47 29 -5 10
-91 68 -102 68 -4 0 -10 5 -12 10 -2 6 -16 13 -32 16 -16 3 -37 9 -47 14 -10
6 -26 10 -37 10 -11 0 -25 7 -32 15 -7 8 -25 15 -40 15 -15 0 -33 7 -40 15 -7
8 -17 15 -23 15 -6 0 -29 9 -51 20 -41 19 -41 20 -38 67 5 63 23 81 138 139
52 26 94 51 94 56 0 4 6 8 13 8 17 1 63 41 70 63 4 9 13 17 22 17 8 0 15 6 15
14 0 7 9 25 20 39 11 14 20 30 20 37 0 6 7 18 15 26 8 9 15 32 15 53 0 34 -7
45 -60 95 -33 31 -65 56 -71 56 -6 0 -23 8 -37 18 -30 21 -106 42 -151 42 -17
0 -31 5 -31 11 0 10 -186 7 -235 -4 -47 -10 -85 -32 -85 -49 0 -10 -7 -18 -15
-18 -18 0 -65 -47 -65 -65 0 -8 -9 -15 -20 -15 -21 0 -60 -33 -60 -50 0 -5
-10 -15 -22 -21 -13 -7 -27 -18 -31 -25 -11 -19 -36 -18 -43 1 -4 8 -13 15
-20 15 -8 0 -33 18 -55 40 -22 22 -47 40 -55 40 -8 0 -14 5 -14 10 0 18 -64
69 -87 70 -15 0 -29 13 -44 40 -13 22 -29 40 -36 40 -16 0 -16 5 0 32 21 37
34 48 61 48 14 0 26 4 26 8 0 4 24 15 53 25 38 12 100 17 236 20 128 3 186 7
189 15 2 7 25 12 56 12 52 0 53 1 71 40 17 38 35 53 35 29 0 -19 18 0 40 43
14 27 18 44 11 46 -15 5 -14 39 2 45 9 4 9 6 0 6 -7 1 -13 8 -13 17 0 8 5 12
11 9 6 -4 5 2 -2 13 -7 12 -22 26 -34 31 -18 10 -18 11 5 5 l25 -5 -25 20
c-15 12 -40 21 -62 21 -21 0 -38 3 -38 8 0 4 -18 20 -40 36 -22 17 -40 35 -40
42 0 19 -74 27 -201 22 -90 -3 -112 -6 -120 -20 -5 -9 -30 -24 -57 -34 -26
-10 -59 -26 -74 -36 -14 -10 -33 -18 -41 -18 -8 0 -20 -7 -27 -15 -7 -8 -18
-15 -25 -15 -7 0 -38 -11 -69 -25 -31 -14 -67 -25 -80 -25 -14 0 -26 -6 -28
-12 -7 -21 -208 -24 -268 -4 -27 9 -67 16 -89 16 l-41 0 2 -567 3 -567 40 -7
c22 -4 75 -13 118 -20 52 -8 77 -16 77 -25 0 -8 10 -14 24 -14 16 0 27 -7 31
-20 3 -11 11 -20 16 -20 12 0 12 -157 -1 -165 -6 -3 -10 -26 -10 -51 l0 -44
3600 0 3600 0 0 809 0 809 -30 7 c-16 4 -30 13 -30 21 0 8 -10 14 -26 14 -55
0 -133 93 -132 160 0 14 -12 60 -26 102 -14 42 -26 82 -26 88 0 12 -15 50 -48
120 -19 42 -61 90 -78 90 -6 0 -14 6 -17 14 -10 25 -40 31 -128 26z m-1369
-466 c11 -12 10 -18 -3 -32 -16 -15 -18 -15 -34 0 -13 14 -14 20 -3 32 7 9 16
16 20 16 4 0 13 -7 20 -16z m-2310 -124 c0 -5 -7 -10 -16 -10 -8 0 -12 5 -9
10 3 6 10 10 16 10 5 0 9 -4 9 -10z m2664 -155 c-6 -16 -24 -21 -24 -7 0 11
11 22 21 22 5 0 6 -7 3 -15z m-3720 -51 c10 -4 16 -18 16 -35 0 -24 -4 -29
-25 -29 -14 0 -25 5 -25 10 0 6 -7 10 -15 10 -9 0 -15 9 -15 25 0 20 5 25 24
25 13 0 31 -3 40 -6z m2896 -233 c0 -17 5 -33 10 -36 6 -3 10 -19 10 -36 0
-16 -4 -29 -10 -29 -5 0 -10 -7 -10 -15 0 -10 -10 -15 -27 -15 -21 0 -24 -3
-15 -12 19 -19 14 -28 -13 -28 -22 0 -25 4 -25 35 0 21 -5 35 -12 36 -10 0
-10 2 0 6 17 7 15 43 -3 43 -8 0 -15 4 -15 9 0 5 7 14 15 21 8 7 15 21 15 31
0 15 8 19 40 19 38 0 40 -2 40 -29z m-2164 -462 c6 -5 30 -16 54 -24 24 -8 72
-33 106 -55 35 -22 68 -40 74 -40 5 0 10 -3 10 -7 0 -5 18 -19 40 -33 22 -13
40 -27 40 -31 0 -11 60 -69 71 -69 5 0 9 -6 9 -14 0 -8 7 -22 16 -30 23 -23
24 -104 2 -120 -10 -7 -18 -21 -18 -30 0 -9 -4 -16 -8 -16 -5 0 -17 -18 -28
-40 -10 -22 -25 -40 -31 -40 -7 0 -13 -6 -13 -12 -1 -16 -63 -48 -95 -48 -50
0 -145 58 -145 90 0 8 -9 26 -20 40 -11 14 -20 32 -20 40 0 8 -9 33 -20 55
-11 22 -19 60 -20 84 0 66 -22 175 -37 184 -7 4 -13 21 -13 38 0 17 -6 32 -15
35 -10 4 -14 17 -13 35 2 27 5 29 33 23 16 -3 35 -10 41 -15z m-2036 -84 c7
-8 21 -15 31 -15 10 0 26 -12 36 -26 10 -14 25 -34 33 -43 29 -34 40 -61 40
-101 0 -22 -4 -40 -10 -40 -5 0 -10 -9 -10 -20 0 -11 -4 -20 -9 -20 -5 0 -13
-9 -16 -20 -3 -11 -11 -20 -16 -20 -6 0 -47 -36 -91 -80 -45 -44 -88 -80 -95
-80 -7 0 -13 -4 -13 -10 0 -5 -18 -10 -40 -10 -22 0 -40 5 -40 10 0 6 -9 10
-21 10 -27 0 -107 47 -119 70 -12 22 -13 90 -2 90 5 0 21 18 38 40 16 22 33
40 37 40 12 0 67 59 67 71 0 5 5 9 11 9 11 0 69 57 69 69 0 10 84 90 96 91 6
0 17 -7 24 -15z m440 -241 c0 -8 -4 -12 -10 -9 -5 3 -10 10 -10 16 0 5 5 9 10
9 6 0 10 -7 10 -16z m-804 -141 c-10 -10 -19 5 -10 18 6 11 8 11 12 0 2 -7 1
-15 -2 -18z"/>
<path d="M6588 2223 c6 -2 18 -2 25 0 6 3 1 5 -13 5 -14 0 -19 -2 -12 -5z"/>
<path d="M1233 1989 c-27 -17 -33 -27 -33 -57 l0 -36 40 39 c22 21 40 47 40
57 0 23 -8 22 -47 -3z"/>
<path d="M6228 1926 c-22 -16 -23 -26 -4 -26 7 0 16 9 19 20 3 11 4 20 4 20
-1 0 -10 -7 -19 -14z"/>
<path d="M3437 1815 c6 -17 25 -15 31 3 2 7 -5 12 -17 12 -14 0 -19 -5 -14
-15z"/>
<path d="M1520 1750 c0 -5 5 -10 11 -10 5 0 7 5 4 10 -3 6 -8 10 -11 10 -2 0
-4 -4 -4 -10z"/>
<path d="M1902 1733 c-13 -14 -26 -39 -29 -54 -3 -16 -12 -34 -19 -40 -8 -6
-14 -17 -14 -25 0 -7 -9 -19 -21 -27 l-20 -15 21 -15 22 -15 -31 -16 c-17 -9
-31 -22 -31 -29 0 -7 -9 -33 -21 -56 -11 -24 -18 -45 -15 -48 11 -11 55 35 65
70 8 25 18 37 30 37 9 0 44 25 77 56 32 30 74 62 92 69 36 16 43 35 12 35 -11
0 -20 5 -20 10 0 18 -29 11 -40 -10 -19 -36 -40 -24 -40 22 0 33 3 39 12 30
17 -17 35 -15 42 5 5 11 1 22 -10 30 -25 18 -36 16 -62 -14z"/>
<path d="M1420 1730 c0 -5 5 -10 10 -10 6 0 10 5 10 10 0 6 -4 10 -10 10 -5 0
-10 -4 -10 -10z"/>
<path d="M1480 1700 c-24 -46 -16 -51 64 -43 39 4 56 2 56 -6 0 -6 7 -11 16
-11 8 0 12 5 9 10 -3 6 4 10 15 10 16 0 20 4 16 16 -3 9 -9 27 -12 40 -6 22
-34 35 -34 15 0 -5 -8 -8 -17 -6 -86 17 -92 16 -113 -25z"/>
<path d="M2189 1709 c-38 -40 -42 -57 -14 -51 31 6 69 47 62 66 -8 21 -17 19
-48 -15z"/>
<path d="M2722 1717 c-23 -25 -28 -53 -12 -77 8 -12 10 -12 10 -1 0 11 3 11
14 1 23 -18 61 -9 59 15 -10 89 -30 106 -71 62z"/>
<path d="M1350 1702 c0 -8 -5 -10 -12 -6 -7 4 -4 -2 6 -14 20 -23 56 -30 56
-12 0 6 -8 14 -17 17 -10 4 -21 11 -25 17 -5 7 -8 7 -8 -2z"/>
</g>
</svg>
