<?xml version="1.0" standalone="no"?>
<!DOCTYPE svg PUBLIC "-//W3C//DTD SVG 20010904//EN"
 "http://www.w3.org/TR/2001/REC-SVG-20010904/DTD/svg10.dtd">
<svg version="1.0" xmlns="http://www.w3.org/2000/svg"
 width="749.000000pt" height="749.000000pt" viewBox="0 0 749.000000 749.000000"
 preserveAspectRatio="xMidYMid meet">
<metadata>
Created by potrace 1.14, written by Peter Selinger 2001-2017
</metadata>
<g transform="translate(0.000000,749.000000) scale(0.100000,-0.100000)"
fill="#000000" stroke="none">
<path d="M3579 7476 c-2 -2 -49 -6 -104 -9 -88 -6 -146 -12 -295 -32 -92 -13
-218 -39 -355 -75 -657 -169 -1231 -495 -1701 -964 -163 -164 -225 -233 -332
-371 -254 -330 -452 -699 -587 -1100 -70 -207 -137 -507 -169 -750 -21 -164
-28 -503 -13 -715 9 -128 7 -118 43 -355 34 -227 135 -569 242 -820 193 -456
461 -851 811 -1197 157 -155 232 -220 394 -341 309 -232 686 -430 1052 -552
219 -73 562 -149 765 -170 30 -3 75 -8 100 -11 77 -9 480 -12 580 -3 246 20
461 56 667 109 546 142 1037 392 1462 745 125 104 367 344 468 465 433 516
718 1132 828 1788 13 81 27 174 30 207 3 33 9 98 14 145 9 95 7 504 -3 590
-14 122 -28 236 -32 255 -5 26 -22 121 -29 163 -29 172 -149 557 -232 742
-158 353 -339 646 -567 920 -119 143 -374 392 -525 513 -115 92 -362 267 -376
267 -2 0 -28 15 -57 34 -166 105 -472 246 -718 329 -239 81 -565 153 -781 172
-41 4 -85 9 -99 11 -32 6 -475 15 -481 10z"/>
</g>
</svg>
